<svg xmlns="http://www.w3.org/2000/svg" viewBox="0 0 520.6 113.82"><defs><style>.cls-1{fill:#231f20;}.cls-2{fill:#fff;}</style></defs><title>Ресурс 1</title><g id="Слой_2" data-name="Слой 2"><g id="Layer_1" data-name="Layer 1"><path class="cls-1" d="M47.91,57.54H19c0-.25.22-.46.67-.89L57.57,17.86l.13-.13c1.92-2,4.1-4.18,4.1-8.81C61.8,3.88,58.58,1,53,1H2.59l.06,1.15c.19,3.81,2.65,11,10.61,11H42a1.67,1.67,0,0,1,.77.14c0,.1-.16.54-.85,1.23L4.53,52.07C2.58,54.05,0,57.21,0,61.77,0,67,3.53,69.71,10.49,69.71H60.79l-.07-1.16C60.71,68.43,59.87,57.54,47.91,57.54Z"/><path class="cls-1" d="M118.68,8.3c-2.6-5.95-5.92-8.16-12.26-8.16-6.5,0-9.6,2.06-12.26,8.16L67.73,69.47l1.48.15c.55.06,13.49,1.24,17.83-8.2.86-1.87,2.84-6.79,3.57-8.62h31.51c.79,2,3.07,7.67,4.12,9.8,3.14,6.31,11.29,7.11,15.22,7.11a21.61,21.61,0,0,0,2.16-.09l1.48-.15Zm.86,34.47h0Zm-26.33,0h0Zm12.26-26.68.07-.17a10.34,10.34,0,0,1,.88-1.78,10.11,10.11,0,0,1,.88,1.78l11.06,26.85h-24Z"/><path class="cls-1" d="M192,45.69h6.39c6.62,0,11.16-2.43,13.88-7.41s3.07-10.48,3.07-15.55-.28-10.54-3.62-15.26C207.2.92,200.29.92,196.16.92h-32.5c-3.9,0-6.83,1-9,3-3.18,3-3.18,6.87-3.18,9.45V69.65h1.09c4.85,0,14-2.47,14-11.81V16.75c0-1.23,0-2.05,1-2.89a3.46,3.46,0,0,1,2.7-.77h21c1.89,0,4.74,0,6.48,1.68,1.38,1.34,2.12,4.26,2.12,8.44,0,3.1-.36,7-1.39,8.52-1.43,2.17-3.9,2.46-6.13,2.46H179.42c-4.17,0-6.87,2.22-6.87,5.65v1.52c0,2.79,3,5.81,3.58,6.4l23.36,21.93h21Z"/><path class="cls-2" d="M283.85,3.17a11.58,11.58,0,0,0-8.28-3H242c-5.34,0-11.38.51-15.4,6.57-3.41,5.13-3.41,11.14-3.41,15.53,0,5.33.24,11.44,3.19,16.34a14.65,14.65,0,0,0,12.88,7.09h6.53l-25.84,24h19.53l23.15-22.84c2.17-2.1,3.26-4.32,3.26-6.58V38.77c0-3.29-2.54-5.18-7-5.18H245.41a6.25,6.25,0,0,1-5.54-2.82c-.86-1.32-1.2-3.66-1.2-8.06,0-3.37.15-6.55,2-8.46,1.69-1.71,3.74-1.86,5.88-1.86h21.53a3.5,3.5,0,0,1,2.7.77,3.07,3.07,0,0,1,1,2.51V57.22c0,10.71,8.35,11.86,11.94,11.86a15.14,15.14,0,0,0,2.26-.15l.91-.15v-57C286.93,8.91,286.93,6,283.85,3.17Z"/><path class="cls-1" d="M353.57,9.21C350,5.46,343.56,1,332.71,1H305.89a10.79,10.79,0,0,0-8.15,3.21c-2.63,2.89-2.63,6.28-2.63,8.53V60.15c0,4.42,2.05,6.62,3.26,7.52,1,.76,3.36,2,8.31,2h27.8c11,0,17-4.68,20.05-8.6,5.64-7.3,6.3-18.63,6.3-26.52C360.82,25.67,360.26,16.38,353.57,9.21Zm-8.25,24.42c0,8.89-1.06,14.85-3.25,18.24-2.54,4-6.55,5.67-13.86,5.67H313.33c-1.22,0-2,0-2.53-.6s-.59-1.32-.59-2.53V16a3.24,3.24,0,0,1,.94-2.46,4.47,4.47,0,0,1,2.38-.45h13.41c4.32,0,10.24.79,13.9,4.53C344.79,21.68,345.32,28,345.32,33.64Z"/><path class="cls-1" d="M369.52,1h-1.09V69.62l1,.07h.6c2.25,0,13.48-.61,13.48-12.75V13.71C383.53,10.72,382.52,1,369.52,1Z"/><path class="cls-1" d="M403.14,39.5c-1.73-1.49-3.36-2.91-3.36-5.21,0-1.49.91-2.38,2.4-3.71l.48-.43L434.27,1H415.09L388.83,26.19a12.43,12.43,0,0,0-3.66,8.2c0,2,.61,5.86,4.67,9.46l28.5,25.85H438Z"/><path class="cls-1" d="M494.19,8.16C491.59,2.21,488.27,0,481.93,0c-6.5,0-9.6,2.06-12.26,8.17L443.25,69.29l1.43.18a25.49,25.49,0,0,0,2.93.15c4,0,11-.81,13.75-6.24.85-1.69,3.8-8.54,4.74-10.72h31.56c.91,2.07,3.74,8.52,4.74,10.93,1.64,3.95,6.26,6.12,13,6.12a28.3,28.3,0,0,0,3.79-.23l1.41-.21ZM481,15.78a10.15,10.15,0,0,1,.88-1.78,10.37,10.37,0,0,1,.88,1.78l10.6,25.75H470.35L481,16Z"/><path class="cls-1" d="M118,110.52q-6.47-.53-9.48-3.49a10,10,0,0,1-3-7.4,9.79,9.79,0,0,1,3.12-7.48q3.12-2.93,9.37-3.42V85.47h4.75v3.27q6.38.51,9.44,3.45a10.61,10.61,0,0,1,.07,14.83q-3,3-9.5,3.51v3.29H118Zm0-18.32a9.19,9.19,0,0,0-5.27,2.28,7.22,7.22,0,0,0-1.8,5.36q0,6.19,7.07,7.21Zm4.75,14.85a9.21,9.21,0,0,0,5.28-2.29,7.19,7.19,0,0,0,1.8-5.35q0-6.19-7.09-7.21Z"/><path class="cls-1" d="M149.37,110.59V113h-5.45V86.27h5.45v15q0,1.82-.15,4a34.1,34.1,0,0,1,3.57-5.33l8.91-11v-2.7h5.42V113H161.7V99.16q0-3.61.13-4.9a39.9,39.9,0,0,1-3.59,5.31Z"/><path class="cls-1" d="M187.77,113h-5.85V90.41h-8V86.27h21.94v4.13h-8Z"/><path class="cls-1" d="M225,113h-5.45V101.4H208V113h-5.46V86.27H208v11h11.54v-11H225Z"/><path class="cls-1" d="M254.69,113H235V86.27h19.45v4h-14V97.5h11.26v3.88H240.49v7.48h14.2Z"/><path class="cls-1" d="M279.69,103.73l5.05.49a10,10,0,0,1-3.51,6.61,11.77,11.77,0,0,1-7.94,2.6,11.33,11.33,0,0,1-6.73-1.84,11.93,11.93,0,0,1-4-5,17.07,17.07,0,0,1-1.39-7,14.76,14.76,0,0,1,3.28-9.94,11.25,11.25,0,0,1,9-3.83A11.43,11.43,0,0,1,281,88.31a11.07,11.07,0,0,1,3.77,7l-5.05.47q-1.39-6.05-6.16-6.05a5.41,5.41,0,0,0-4.75,2.52q-1.7,2.52-1.7,7.3t1.82,7.34a5.66,5.66,0,0,0,4.81,2.48,5.59,5.59,0,0,0,4.08-1.66A6.29,6.29,0,0,0,279.69,103.73Z"/><path class="cls-1" d="M300.16,101v3.66H289V101Z"/><path class="cls-1" d="M330.58,113h-6.09L318.1,99.4l-5.85,6.86V113H306.8V86.27h5.45v14c.7-1,1.2-1.61,1.51-2l10-12.07h5.52l-7.18,8.8Z"/><path class="cls-1" d="M338.79,113H334l9.59-26.74h6.92L360.1,113h-5.85l-7.64-22.25h-.31Z"/><path class="cls-1" d="M373.08,105.22,362.33,86.27h5.9l7.44,13.54,6.12-13.54h5.12l-9.44,20.12a13.4,13.4,0,0,1-3.72,5.25,9.37,9.37,0,0,1-5.51,1.37h-2v-4.15h2a5,5,0,0,0,2.88-.64,5.27,5.27,0,0,0,1.53-2.07Z"/><path class="cls-1" d="M392.9,113V86.27h18.94v3.88H398.36v7h5.23a25.78,25.78,0,0,1,6.27.61,6.77,6.77,0,0,1,3.78,2.59A7.62,7.62,0,0,1,415.1,105a7.31,7.31,0,0,1-2.54,5.8Q410,113,405.11,113Zm5.46-4.15h6.09q5.11,0,5.12-4a3.74,3.74,0,0,0-1.13-2.77q-1.14-1.11-4.54-1.11h-5.54Z"/></g></g></svg>